<svg width="1920" height="262" viewBox="0 0 1920 262" fill="none" xmlns="http://www.w3.org/2000/svg">
<path d="M31.5244 251.683V247.879C31.5244 246.111 32.2274 244.415 33.4788 243.165C34.7302 241.915 36.4275 241.212 38.1972 241.212H136.878C137.752 241.218 138.619 241.051 139.428 240.72C140.237 240.39 140.973 239.903 141.594 239.287C142.214 238.672 142.706 237.939 143.042 237.133C143.378 236.326 143.551 235.462 143.551 234.588V141.035C143.545 140.161 143.712 139.295 144.043 138.487C144.374 137.678 144.861 136.943 145.477 136.323C146.094 135.703 146.826 135.212 147.634 134.876C148.441 134.541 149.306 134.368 150.181 134.368H194.11C194.986 134.368 195.854 134.195 196.664 133.86C197.473 133.525 198.209 133.034 198.828 132.415C199.448 131.796 199.939 131.061 200.275 130.252C200.61 129.443 200.783 128.576 200.783 127.701V29.2754C200.783 28.4019 200.956 27.537 201.291 26.7305C201.627 25.924 202.12 25.1918 202.74 24.5761C203.36 23.9604 204.096 23.4734 204.905 23.143C205.715 22.8126 206.581 22.6454 207.456 22.6511H243.429C244.303 22.6454 245.17 22.8126 245.979 23.143C246.788 23.4734 247.524 23.9604 248.145 24.5761C248.765 25.1918 249.257 25.924 249.593 26.7305C249.929 27.537 250.102 28.4019 250.102 29.2754V127.829C250.101 129.575 250.787 131.252 252.01 132.498C253.234 133.745 254.899 134.462 256.646 134.496H278.033C279.803 134.496 281.5 133.794 282.752 132.543C284.003 131.293 284.706 129.597 284.706 127.829V101.203C284.706 99.435 285.409 97.7392 286.661 96.4889C287.912 95.2385 289.609 94.5361 291.379 94.5361H295.357C297.127 94.5361 298.824 93.8337 300.075 92.5834C301.327 91.333 302.03 89.6372 302.03 87.869V79.877C302.03 79.0035 302.203 78.1386 302.538 77.3321C302.874 76.5256 303.367 75.7934 303.987 75.1777C304.607 74.562 305.343 74.075 306.152 73.7446C306.962 73.4142 307.828 73.247 308.703 73.2527H408.709C409.583 73.247 410.45 73.4142 411.259 73.7446C412.069 74.075 412.805 74.562 413.425 75.1777C414.045 75.7934 414.537 76.5256 414.873 77.3321C415.209 78.1386 415.382 79.0035 415.382 79.877V87.869C415.376 88.7425 415.544 89.6085 415.874 90.4172C416.205 91.2258 416.692 91.9611 417.309 92.5808C417.925 93.2004 418.658 93.6922 419.465 94.0278C420.272 94.3634 421.138 94.5361 422.012 94.5361H426.033C427.802 94.5361 429.5 95.2385 430.751 96.4889C432.003 97.7392 432.706 99.435 432.706 101.203V127.829C432.7 128.702 432.867 129.568 433.198 130.377C433.529 131.186 434.016 131.921 434.632 132.541C435.248 133.16 435.981 133.652 436.788 133.988C437.596 134.323 438.461 134.496 439.336 134.496H492.675C493.55 134.496 494.415 134.323 495.222 133.988C496.03 133.652 496.762 133.16 497.379 132.541C497.995 131.921 498.482 131.186 498.813 130.377C499.144 129.568 499.311 128.702 499.305 127.829V59.833C499.305 58.0648 500.008 56.3689 501.26 55.1186C502.511 53.8683 504.208 53.1659 505.978 53.1659H527.365C529.128 53.1772 530.814 53.8846 532.056 55.1337C533.298 56.3828 533.995 58.0721 533.995 59.833V127.829C533.99 128.702 534.157 129.568 534.488 130.377C534.818 131.186 535.306 131.921 535.922 132.541C536.538 133.16 537.271 133.652 538.078 133.988C538.885 134.323 539.751 134.496 540.625 134.496H560.644C561.518 134.496 562.384 134.323 563.191 133.988C563.998 133.652 564.731 133.16 565.347 132.541C565.963 131.921 566.451 131.186 566.781 130.377C567.112 129.568 567.279 128.702 567.274 127.829V29.2754C567.274 28.4019 567.447 27.537 567.783 26.7305C568.118 25.924 568.611 25.1918 569.231 24.5761C569.851 23.9604 570.587 23.4734 571.396 23.143C572.206 22.8126 573.072 22.6454 573.947 22.6511H575.273C577.042 22.6511 578.74 21.9486 579.991 20.6983C581.242 19.448 581.945 17.7522 581.945 15.984V13.3342C581.945 11.566 582.649 9.87018 583.9 8.61985C585.151 7.36953 586.849 6.6671 588.618 6.6671H689.908C691.678 6.6671 693.375 7.36953 694.626 8.61985C695.878 9.87018 696.581 11.566 696.581 13.3342V15.984C696.581 16.8595 696.753 17.7265 697.089 18.5353C697.424 19.3442 697.916 20.0792 698.535 20.6983C699.787 21.9486 701.484 22.6511 703.254 22.6511H704.58C705.452 22.6454 706.317 22.8128 707.124 23.1437C707.931 23.4746 708.664 23.9624 709.28 24.5786C709.897 25.1949 710.385 25.9274 710.717 26.7337C711.048 27.54 711.215 28.4039 711.21 29.2754V59.833C711.21 60.7085 711.382 61.5755 711.718 62.3844C712.053 63.1933 712.545 63.9282 713.164 64.5473C713.784 65.1664 714.519 65.6575 715.329 65.9926C716.139 66.3276 717.006 66.5001 717.883 66.5001H743.205C744.975 66.5001 746.672 67.2025 747.923 68.4528C749.175 69.7032 749.878 71.399 749.878 73.1672V105.092C749.878 106.861 750.581 108.556 751.832 109.807C753.084 111.057 754.781 111.759 756.551 111.759H816.435C818.204 111.759 819.902 112.462 821.153 113.712C822.405 114.963 823.108 116.658 823.108 118.427V131.761C823.09 132.647 823.252 133.527 823.583 134.349C823.915 135.171 824.409 135.918 825.036 136.544C825.663 137.171 826.41 137.664 827.233 137.995C828.055 138.326 828.936 138.488 829.823 138.471H928.461C929.335 138.476 930.202 138.309 931.011 137.979C931.821 137.648 932.557 137.161 933.177 136.546C933.797 135.93 934.289 135.198 934.625 134.391C934.961 133.585 935.134 132.72 935.134 131.846V60.7305C935.134 59.8549 935.306 58.988 935.642 58.1791C935.977 57.3702 936.469 56.6352 937.088 56.0161C937.708 55.397 938.443 54.9059 939.253 54.5709C940.063 54.2358 940.93 54.0634 941.807 54.0634H973.759C974.633 54.069 975.5 53.9018 976.309 53.5714C977.119 53.2411 977.855 52.754 978.475 52.1383C979.095 51.5226 979.587 50.7905 979.923 49.984C980.259 49.1774 980.432 48.3125 980.432 47.439V38.1222C980.432 36.3539 981.135 34.6581 982.386 33.4078C983.638 32.1575 985.335 31.4551 987.105 31.4551H996.643C998.413 31.4551 1000.11 32.1575 1001.36 33.4078C1002.61 34.6581 1003.32 36.3539 1003.32 38.1222V47.439C1003.32 48.3125 1003.49 49.1774 1003.82 49.984C1004.16 50.7905 1004.65 51.5226 1005.27 52.1383C1005.89 52.754 1006.63 53.2411 1007.44 53.5714C1008.25 53.9018 1009.11 54.069 1009.99 54.0634H1041.94C1042.82 54.0634 1043.69 54.2358 1044.49 54.5709C1045.3 54.9059 1046.04 55.397 1046.66 56.0161C1047.28 56.6352 1047.77 57.3702 1048.11 58.1791C1048.44 58.988 1048.61 59.8549 1048.61 60.7305V75.9024C1048.61 77.6706 1049.32 79.3664 1050.57 80.6168C1051.82 81.8671 1053.52 82.5695 1055.29 82.5695H1079.28C1081.05 82.5695 1082.75 83.2719 1084 84.5223C1085.25 85.7726 1085.96 87.4684 1085.96 89.2366V110.606C1085.95 111.479 1086.12 112.345 1086.45 113.154C1086.78 113.962 1087.27 114.698 1087.88 115.317C1088.5 115.937 1089.23 116.429 1090.04 116.764C1090.85 117.1 1091.71 117.273 1092.59 117.273H1225.87C1227.64 117.273 1229.34 116.57 1230.59 115.32C1231.84 114.07 1232.54 112.374 1232.54 110.606V17.3088C1232.54 16.4333 1232.72 15.5663 1233.05 14.7574C1233.39 13.9485 1233.88 13.2136 1234.5 12.5945C1235.12 11.9754 1235.85 11.4843 1236.66 11.1492C1237.47 10.8142 1238.34 10.6417 1239.22 10.6417H1387.13C1388.01 10.6417 1388.87 10.8142 1389.68 11.1492C1390.49 11.4843 1391.23 11.9754 1391.85 12.5945C1392.47 13.2136 1392.96 13.9485 1393.3 14.7574C1393.63 15.5663 1393.8 16.4333 1393.8 17.3088V47.9519C1393.8 48.8254 1393.98 49.6903 1394.31 50.4968C1394.65 51.3033 1395.14 52.0355 1395.76 52.6512C1396.38 53.2669 1397.12 53.7539 1397.93 54.0843C1398.74 54.4147 1399.6 54.5819 1400.48 54.5762H1497.53C1499.3 54.5762 1501 55.2786 1502.25 56.529C1503.5 57.7793 1504.2 59.4751 1504.2 61.2433V85.2193C1504.2 86.0948 1504.38 86.9618 1504.71 87.7706C1505.05 88.5795 1505.54 89.3145 1506.16 89.9336C1506.78 90.5527 1507.51 91.0438 1508.32 91.3789C1509.13 91.7139 1510 91.8864 1510.88 91.8864H1550.83C1552.6 91.8864 1554.3 91.1839 1555.55 89.9336C1556.8 88.6833 1557.5 86.9875 1557.5 85.2193V19.9586C1557.5 19.085 1557.67 18.2201 1558.01 17.4136C1558.35 16.6071 1558.84 15.875 1559.46 15.2593C1560.08 14.6436 1560.81 14.1565 1561.62 13.8261C1562.43 13.4958 1563.3 13.3286 1564.17 13.3342H1572.17C1573.94 13.3342 1575.64 12.6318 1576.89 11.3815C1578.14 10.1311 1578.85 8.43533 1578.85 6.6671V6.6671C1578.85 4.89888 1579.55 3.20307 1580.8 1.95275C1582.05 0.702425 1583.75 1.43476e-09 1585.52 1.43475e-09L1620.17 1.43475e-09C1621.04 -1.81784e-05 1621.91 0.172732 1622.71 0.508307C1623.52 0.843882 1624.25 1.33565 1624.87 1.95532C1625.49 2.57498 1625.97 3.3103 1626.3 4.11894C1626.63 4.92759 1626.8 5.79359 1626.8 6.6671V6.6671C1626.8 8.43533 1627.5 10.1311 1628.75 11.3815C1630 12.6318 1631.7 13.3342 1633.47 13.3342H1638.82C1639.69 13.3286 1640.56 13.4958 1641.37 13.8261C1642.18 14.1565 1642.91 14.6436 1643.53 15.2593C1644.15 15.875 1644.64 16.6071 1644.98 17.4136C1645.32 18.2201 1645.49 19.085 1645.49 19.9586V85.2193C1645.48 86.0928 1645.65 86.9588 1645.98 87.7674C1646.31 88.5761 1646.8 89.3114 1647.42 89.931C1648.03 90.5507 1648.76 91.0425 1649.57 91.3781C1650.38 91.7136 1651.24 91.8864 1652.12 91.8864H1693.44C1695.21 91.8864 1696.91 92.5888 1698.16 93.8391C1699.41 95.0894 1700.11 96.7852 1700.11 98.5535V133.171C1700.11 134.925 1700.8 136.608 1702.04 137.856C1703.27 139.103 1704.94 139.816 1706.7 139.838H1748.02C1748.89 139.838 1749.76 139.665 1750.57 139.33C1751.37 138.994 1752.11 138.503 1752.72 137.883C1753.34 137.263 1753.83 136.528 1754.16 135.719C1754.49 134.911 1754.65 134.045 1754.65 133.171V125.179C1754.65 123.411 1755.35 121.715 1756.6 120.465C1757.85 119.214 1759.55 118.512 1761.32 118.512H1779.97C1781.74 118.512 1783.44 119.214 1784.69 120.465C1785.94 121.715 1786.64 123.411 1786.64 125.179V162.404C1786.64 164.172 1787.35 165.868 1788.6 167.118C1789.85 168.368 1791.55 169.071 1793.32 169.071H1845.29C1846.18 169.048 1847.07 169.205 1847.9 169.532C1848.74 169.86 1849.49 170.351 1850.13 170.977C1850.77 171.603 1851.28 172.351 1851.62 173.176C1851.96 174.001 1852.14 174.887 1852.13 175.781V229.032C1852.13 230.8 1852.83 232.496 1854.09 233.746C1855.34 234.997 1857.03 235.699 1858.8 235.699H1893.45C1894.33 235.699 1895.2 235.872 1896.01 236.207C1896.81 236.542 1897.55 237.033 1898.17 237.652C1898.79 238.271 1899.28 239.006 1899.62 239.815C1899.95 240.624 1900.12 241.491 1900.12 242.366V254.333C1900.12 255.208 1899.95 256.075 1899.62 256.884C1899.28 257.693 1898.79 258.428 1898.17 259.047C1897.55 259.666 1896.81 260.157 1896.01 260.492C1895.2 260.828 1894.33 261 1893.45 261H38.1972C36.4275 261 34.7302 260.298 33.4788 259.047C32.2274 257.797 31.5244 256.101 31.5244 254.333V251.683Z" fill="#EFF1F2"/>
<path d="M1893.87 261.701H4.27655C3.14234 261.701 2.05458 261.25 1.25257 260.449C0.450564 259.647 0 258.56 0 257.427V230.075C0 228.941 0.450564 227.854 1.25257 227.053C2.05458 226.251 3.14234 225.801 4.27655 225.801H65.4312C66.528 225.746 67.5616 225.272 68.3179 224.476C69.0742 223.68 69.4953 222.625 69.4939 221.527V201.868C69.4926 200.77 69.9137 199.714 70.67 198.919C71.4263 198.123 72.4599 197.649 73.5567 197.594H116.75C117.811 197.542 118.814 197.098 119.565 196.347C120.316 195.597 120.761 194.594 120.813 193.534V116.392C120.864 115.332 121.309 114.329 122.06 113.579C122.811 112.828 123.815 112.384 124.875 112.332H159.387C160.448 112.384 161.451 112.828 162.202 113.579C162.953 114.329 163.398 115.332 163.45 116.392V193.32C163.505 194.416 163.979 195.449 164.775 196.205C165.572 196.961 166.628 197.382 167.726 197.38H207.541C208.639 197.382 209.696 196.961 210.492 196.205C211.288 195.449 211.763 194.416 211.818 193.32V160.882C211.818 159.749 212.268 158.662 213.07 157.86C213.872 157.059 214.96 156.608 216.094 156.608H217.505C218.077 156.646 218.65 156.561 219.186 156.36C219.722 156.159 220.208 155.845 220.613 155.44C221.018 155.036 221.332 154.549 221.533 154.014C221.735 153.478 221.82 152.906 221.782 152.335V150.668C221.782 149.534 222.232 148.447 223.034 147.646C223.836 146.844 224.924 146.394 226.058 146.394H277.976C279.11 146.394 280.198 146.844 281 147.646C281.802 148.447 282.252 149.534 282.252 150.668V152.335C282.252 153.468 282.703 154.555 283.505 155.357C284.307 156.158 285.395 156.608 286.529 156.608C287.626 156.663 288.659 157.138 289.416 157.933C290.172 158.729 290.593 159.785 290.592 160.882V192.679C290.646 193.775 291.121 194.808 291.917 195.564C292.713 196.32 293.77 196.741 294.868 196.739H305.388C306.487 196.741 307.543 196.32 308.339 195.564C309.135 194.808 309.61 193.775 309.665 192.679V140.881C309.717 139.821 310.162 138.818 310.912 138.067C311.663 137.317 312.667 136.873 313.728 136.821H336.222C337.321 136.819 338.377 137.24 339.173 137.996C339.969 138.752 340.444 139.785 340.499 140.881V195.329C340.461 195.9 340.546 196.472 340.747 197.008C340.949 197.544 341.263 198.03 341.668 198.435C342.073 198.839 342.559 199.153 343.095 199.354C343.631 199.556 344.204 199.64 344.775 199.603H345.93C347.064 199.603 348.152 199.152 348.954 198.351C349.756 197.549 350.207 196.462 350.207 195.329V183.49C350.207 182.357 350.657 181.27 351.459 180.468C352.261 179.667 353.349 179.217 354.483 179.217H374.326C375.423 179.162 376.457 178.687 377.213 177.892C377.969 177.096 378.391 176.04 378.389 174.943V148.873C378.389 147.739 378.84 146.652 379.642 145.851C380.444 145.049 381.532 144.599 382.666 144.599H415.852C416.986 144.599 418.074 145.049 418.876 145.851C419.678 146.652 420.128 147.739 420.128 148.873V188.662C420.128 189.795 420.579 190.882 421.381 191.684C422.183 192.485 423.271 192.936 424.405 192.936H460.242C461.377 192.936 462.464 192.485 463.266 191.684C464.068 190.882 464.519 189.795 464.519 188.662V99.5961C464.571 98.536 465.015 97.5331 465.766 96.7826C466.517 96.0321 467.521 95.5878 468.582 95.536H483.122C484.22 95.5373 485.277 95.1165 486.073 94.3607C486.869 93.6048 487.344 92.5719 487.398 91.4759V86.4755C487.391 85.9221 487.499 85.3732 487.714 84.8632C487.929 84.3532 488.248 83.8932 488.649 83.512C489.051 83.1308 489.527 82.8366 490.048 82.6479C490.568 82.4592 491.122 82.3801 491.675 82.4154H600.77C601.868 82.4141 602.924 82.8349 603.721 83.5907C604.517 84.3466 604.991 85.3795 605.046 86.4755V95.4505C605.046 96.584 605.497 97.671 606.299 98.4725C607.101 99.274 608.189 99.7243 609.323 99.7243H618.475C619.609 99.7243 620.697 100.175 621.499 100.976C622.301 101.778 622.751 102.865 622.751 103.998V194.004C622.716 194.556 622.795 195.11 622.984 195.63C623.173 196.151 623.467 196.626 623.848 197.028C624.23 197.429 624.69 197.747 625.201 197.962C625.711 198.177 626.26 198.285 626.814 198.278H642.637C643.191 198.285 643.74 198.177 644.251 197.962C644.761 197.747 645.221 197.429 645.603 197.028C645.984 196.626 646.278 196.151 646.467 195.63C646.656 195.11 646.735 194.556 646.7 194.004V178.191C646.7 177.057 647.151 175.97 647.953 175.169C648.755 174.367 649.842 173.917 650.976 173.917H665.474C666.608 173.917 667.696 174.367 668.498 175.169C669.3 175.97 669.751 177.057 669.751 178.191V194.004C669.749 195.101 670.17 196.157 670.927 196.953C671.683 197.748 672.717 198.223 673.813 198.278H689.679C690.776 198.223 691.81 197.748 692.566 196.953C693.322 196.157 693.743 195.101 693.742 194.004V166.182C693.797 165.086 694.272 164.053 695.068 163.297C695.864 162.541 696.92 162.12 698.019 162.122H738.988C740.049 162.173 741.052 162.618 741.803 163.368C742.554 164.119 742.999 165.122 743.051 166.182V206.142C743.049 207.239 743.47 208.295 744.227 209.09C744.983 209.886 746.017 210.36 747.113 210.415H791.162C792.296 210.415 793.384 209.965 794.186 209.164C794.988 208.362 795.438 207.275 795.438 206.142V48.9944C795.438 47.861 795.889 46.7739 796.691 45.9724C797.493 45.1709 798.581 44.7207 799.715 44.7207H807.541C808.076 44.7264 808.607 44.6253 809.102 44.4233C809.598 44.2212 810.048 43.9224 810.427 43.5442C810.805 43.1661 811.104 42.7162 811.306 42.221C811.508 41.7259 811.609 41.1953 811.604 40.6606V39.6776C811.604 38.5441 812.054 37.4571 812.856 36.6556C813.658 35.8541 814.746 35.4038 815.88 35.4038H832.986C834.083 35.4587 835.117 35.9331 835.873 36.7287C836.629 37.5243 837.051 38.5802 837.049 39.6776V42.1991C837.101 43.2592 837.546 44.2621 838.297 45.0126C839.048 45.763 840.051 46.2074 841.112 46.2592H846.757C847.891 46.2592 848.979 46.7095 849.781 47.511C850.583 48.3125 851.034 49.3995 851.034 50.533V174.045C851.085 175.105 851.53 176.108 852.281 176.859C853.032 177.609 854.035 178.054 855.096 178.105H900.214C901.275 178.054 902.278 177.609 903.029 176.859C903.78 176.108 904.225 175.105 904.277 174.045V107.588C904.277 106.455 904.727 105.367 905.529 104.566C906.331 103.765 907.419 103.314 908.553 103.314H953.671C954.805 103.314 955.893 103.765 956.695 104.566C957.497 105.367 957.947 106.455 957.947 107.588V146.052C957.947 147.186 958.398 148.273 959.2 149.074C960.002 149.876 961.09 150.326 962.224 150.326H1075.34C1076.47 150.326 1077.56 150.776 1078.36 151.578C1079.16 152.379 1079.62 153.466 1079.62 154.6V195.713C1079.58 196.266 1079.66 196.82 1079.85 197.34C1080.04 197.86 1080.33 198.336 1080.71 198.737C1081.09 199.138 1081.55 199.457 1082.06 199.672C1082.57 199.887 1083.12 199.994 1083.68 199.987H1128.84C1129.97 199.987 1131.06 199.537 1131.86 198.735C1132.66 197.934 1133.11 196.847 1133.11 195.713V83.6121C1133.17 82.552 1133.61 81.5492 1134.36 80.7987C1135.11 80.0482 1136.12 79.6038 1137.18 79.552H1190.33C1191.4 79.6038 1192.4 80.0482 1193.15 80.7987C1193.9 81.5492 1194.35 82.552 1194.4 83.6121V170.028C1194.4 171.162 1194.85 172.249 1195.65 173.05C1196.45 173.852 1197.54 174.302 1198.67 174.302H1233.14C1234.24 174.357 1235.27 174.831 1236.03 175.627C1236.79 176.422 1237.21 177.478 1237.21 178.576V198.021C1237.26 199.117 1237.74 200.15 1238.53 200.906C1239.33 201.662 1240.38 202.083 1241.48 202.081H1275.95C1277.01 202.03 1278.02 201.585 1278.77 200.835C1279.52 200.084 1279.96 199.081 1280.01 198.021V182.166C1280.01 181.032 1280.46 179.945 1281.27 179.144C1282.07 178.342 1283.16 177.892 1284.29 177.892H1295.79C1296.86 177.84 1297.86 177.396 1298.61 176.645C1299.36 175.895 1299.81 174.892 1299.86 173.832V118.272C1299.86 117.175 1300.28 116.119 1301.03 115.324C1301.79 114.528 1302.82 114.054 1303.92 113.999H1321.03C1322.12 114 1323.18 113.579 1323.98 112.823C1324.77 112.068 1325.25 111.035 1325.3 109.939V100.964C1325.3 99.8663 1325.72 98.8104 1326.48 98.0147C1327.24 97.2191 1328.27 96.7447 1329.37 96.6899H1432C1433.1 96.7447 1434.13 97.2191 1434.89 98.0147C1435.65 98.8104 1436.07 99.8663 1436.07 100.964V110.11C1436.12 111.206 1436.6 112.239 1437.39 112.994C1438.19 113.75 1439.24 114.171 1440.34 114.17H1456.21C1457.3 114.225 1458.34 114.699 1459.09 115.495C1459.85 116.29 1460.27 117.346 1460.27 118.443V182.037C1460.27 183.135 1460.69 184.191 1461.45 184.986C1462.2 185.782 1463.24 186.256 1464.33 186.311H1477.51C1478.04 186.305 1478.57 186.407 1479.07 186.609C1479.56 186.811 1480.01 187.109 1480.39 187.488C1480.77 187.866 1481.07 188.316 1481.27 188.811C1481.47 189.306 1481.57 189.836 1481.57 190.371V203.534C1481.62 204.595 1482.06 205.597 1482.82 206.348C1483.57 207.098 1484.57 207.543 1485.63 207.595H1504.15C1504.68 207.6 1505.21 207.499 1505.71 207.297C1506.21 207.095 1506.66 206.796 1507.03 206.418C1507.41 206.04 1507.71 205.59 1507.91 205.095C1508.12 204.6 1508.22 204.069 1508.21 203.534V160.882C1508.21 159.749 1508.66 158.662 1509.46 157.86C1510.27 157.059 1511.35 156.608 1512.49 156.608H1625.09C1626.19 156.663 1627.22 157.138 1627.98 157.933C1628.73 158.729 1629.15 159.785 1629.15 160.882V180.499C1629.15 181.596 1629.57 182.652 1630.33 183.448C1631.08 184.243 1632.12 184.718 1633.21 184.773H1730.33C1730.89 184.766 1731.44 184.873 1731.95 185.088C1732.46 185.303 1732.92 185.621 1733.3 186.023C1733.68 186.424 1733.98 186.9 1734.17 187.42C1734.35 187.94 1734.43 188.494 1734.4 189.046V216.869C1734.45 217.929 1734.89 218.932 1735.65 219.682C1736.4 220.433 1737.4 220.877 1738.46 220.929H1788.97C1790.03 220.877 1791.03 220.433 1791.78 219.682C1792.53 218.932 1792.98 217.929 1793.03 216.869V204.817C1793.08 203.721 1793.56 202.688 1794.35 201.932C1795.15 201.176 1796.21 200.755 1797.31 200.757H1823.82C1824.36 200.751 1824.89 200.852 1825.38 201.054C1825.88 201.256 1826.33 201.555 1826.71 201.933C1827.08 202.311 1827.38 202.761 1827.59 203.256C1827.79 203.751 1827.89 204.282 1827.88 204.817V216.655C1827.94 217.715 1828.38 218.718 1829.13 219.468C1829.88 220.219 1830.89 220.663 1831.95 220.715H1867.78C1868.88 220.77 1869.91 221.244 1870.67 222.04C1871.43 222.836 1871.85 223.891 1871.85 224.989V240.845C1871.85 241.978 1872.3 243.065 1873.1 243.867C1873.9 244.668 1874.99 245.118 1876.12 245.118H1915.94C1917 245.17 1918 245.615 1918.75 246.365C1919.5 247.116 1919.95 248.118 1920 249.179V257.726C1920 258.823 1919.58 259.879 1918.82 260.675C1918.07 261.471 1917.03 261.945 1915.94 262L1893.87 261.701Z" fill="#F4F6F7"/>
</svg>
